<?xml version="1.0" encoding="UTF-8"?>
<svg version="1.1" xmlns="http://www.w3.org/2000/svg" width="1024" height="1024">
<path d="M0 0 C0 0.66 0 1.32 0 2 C1.03125 2.04125 2.0625 2.0825 3.125 2.125 C7.51514085 2.65498097 11.39966605 4.21229044 15.4375 5.9375 C16.06479004 6.20256348 16.69208008 6.46762695 17.33837891 6.74072266 C21.87018977 8.74037955 21.87018977 8.74037955 23 11 C23.825 11.33 24.65 11.66 25.5 12 C28 13 28 13 29 15 C30.73480369 15.72010719 32.47018789 16.43891875 34.2109375 17.14453125 C36.68814355 18.32904681 38.28734651 19.87630967 40 22 C40 22.66 40 23.32 40 24 C40.680625 24.165 41.36125 24.33 42.0625 24.5 C45.73635591 26.37601153 47.62242005 28.82835325 50.2265625 31.97265625 C51.82617632 33.80128967 53.40594072 35.25730359 55.3125 36.75 C57.82628684 38.85456573 58.74768619 40.07793444 60 43 C60.66 43.33 61.32 43.66 62 44 C62.474375 45.11375 62.94875 46.2275 63.4375 47.375 C64.86388229 50.6842069 65.56352931 51.66098814 68 54 C71.43236398 59.20055148 72.94525984 63.87973143 74 70 C74.66 70 75.32 70 76 70 C76.19335938 70.74765625 76.38671875 71.4953125 76.5859375 72.265625 C76.84632813 73.25046875 77.10671875 74.2353125 77.375 75.25 C77.63023437 76.22453125 77.88546875 77.1990625 78.1484375 78.203125 C78.86335816 80.89808236 78.86335816 80.89808236 79.98413086 82.78271484 C84.28194544 92.16333298 83.36110648 104.51728225 83.3125 114.625 C83.31233887 115.3154541 83.31217773 116.0059082 83.31201172 116.71728516 C83.29321936 128.34438569 82.30359162 139.59173675 80 151 C79.34 151 78.68 151 78 151 C77.855625 151.9075 77.71125 152.815 77.5625 153.75 C77.13590527 156.21476956 76.64925779 158.58847107 76 161 C75.34 161 74.68 161 74 161 C73.86722656 161.61488281 73.73445312 162.22976563 73.59765625 162.86328125 C73.42105469 163.67152344 73.24445313 164.47976563 73.0625 165.3125 C72.88847656 166.11300781 72.71445312 166.91351562 72.53515625 167.73828125 C72 170 72 170 71 173 C70.34 173 69.68 173 69 173 C68.71125 173.969375 68.4225 174.93875 68.125 175.9375 C67 179 67 179 65 180 C64.525625 181.134375 64.05125 182.26875 63.5625 183.4375 C62 187 62 187 59 189 C58.67 189.99 58.34 190.98 58 192 C56.328125 193.61328125 56.328125 193.61328125 54.25 195.3125 C50.70348738 198.31534046 47.90676445 201.38618473 45 205 C40.48387097 209.83870968 40.48387097 209.83870968 37 211 C36.34 211.99 35.68 212.98 35 214 C26 220 26 220 22 220 C22 220.66 22 221.32 22 222 C5.51578947 229.51710526 5.51578947 229.51710526 0 229 C0 229.66 0 230.32 0 231 C-2.16567544 231.48362696 -4.33259741 231.96167317 -6.5 232.4375 C-7.7065625 232.70433594 -8.913125 232.97117187 -10.15625 233.24609375 C-18.92050067 234.9650982 -27.39177787 235.22824214 -36.3125 235.25 C-36.97352722 235.25200409 -37.63455444 235.25400818 -38.31561279 235.256073 C-50.80420714 235.26532773 -62.90124574 234.22842406 -75 231 C-75 230.34 -75 229.68 -75 229 C-76.00160156 228.89816406 -77.00320313 228.79632812 -78.03515625 228.69140625 C-82.16574865 228.10132162 -85.66196209 226.65946491 -89.4375 224.9375 C-90.07365234 224.65583984 -90.70980469 224.37417969 -91.36523438 224.08398438 C-92.91363051 223.39710188 -94.45733357 222.69965593 -96 222 C-96 221.34 -96 220.68 -96 220 C-97.134375 219.71125 -98.26875 219.4225 -99.4375 219.125 C-100.613125 218.75375 -101.78875 218.3825 -103 218 C-103.33 217.34 -103.66 216.68 -104 216 C-105.64556566 214.96564444 -107.3170608 213.97236487 -109 213 C-113.18799181 210.38250512 -116.6975083 207.69102013 -120 204 C-120 203.34 -120 202.68 -120 202 C-120.66 202 -121.32 202 -122 202 C-122 201.34 -122 200.68 -122 200 C-123.32 199.67 -124.64 199.34 -126 199 C-126 198.34 -126 197.68 -126 197 C-126.66 197 -127.32 197 -128 197 C-129.01866229 195.34467377 -130.01810813 193.67739862 -131 192 C-131.66 191.67 -132.32 191.34 -133 191 C-134.05589069 189.36816893 -135.0436126 187.69207001 -136 186 C-136.35707031 185.40058594 -136.71414063 184.80117188 -137.08203125 184.18359375 C-140 179.24469965 -140 179.24469965 -140 177 C-140.66 177 -141.32 177 -142 177 C-143.4606285 174.35261084 -144 173.10551666 -144 170 C-144.66 169.67 -145.32 169.34 -146 169 C-146.8515625 167.22265625 -146.8515625 167.22265625 -147.625 165.0625 C-147.88539063 164.35222656 -148.14578125 163.64195312 -148.4140625 162.91015625 C-149 161 -149 161 -149 159 C-149.66 159 -150.32 159 -151 159 C-151.20496094 158.08476563 -151.40992188 157.16953125 -151.62109375 156.2265625 C-151.89050781 155.03804687 -152.15992188 153.84953125 -152.4375 152.625 C-152.70433594 151.44164062 -152.97117187 150.25828125 -153.24609375 149.0390625 C-153.85634695 146.10505419 -153.85634695 146.10505419 -155 144 C-154.505 143.01 -154.505 143.01 -154 142 C-154.66 142 -155.32 142 -156 142 C-158.10126719 124.23303548 -157.9851076 107.77734751 -156 90 C-155.34 90 -154.68 90 -154 90 C-153.95101563 89.3709375 -153.90203125 88.741875 -153.8515625 88.09375 C-153.36564801 82.53086686 -152.49446374 77.38006948 -151 72 C-150.34 72 -149.68 72 -149 72 C-148.86722656 71.37351562 -148.73445313 70.74703125 -148.59765625 70.1015625 C-148.42105469 69.28429687 -148.24445313 68.46703125 -148.0625 67.625 C-147.88847656 66.81289063 -147.71445312 66.00078125 -147.53515625 65.1640625 C-147 63 -147 63 -146 61 C-145.34 61 -144.68 61 -144 61 C-143.7834375 59.824375 -143.7834375 59.824375 -143.5625 58.625 C-143 56 -143 56 -142 54 C-141.34 54 -140.68 54 -140 54 C-139.690625 53.05125 -139.38125 52.1025 -139.0625 51.125 C-138 48 -138 48 -137 46 C-136.34 46 -135.68 46 -135 46 C-134.34 44.68 -133.68 43.36 -133 42 C-132.34 42 -131.68 42 -131 42 C-130.88785156 41.40832031 -130.77570313 40.81664062 -130.66015625 40.20703125 C-128.80506783 34.00510841 -122.42798439 29.46862701 -117.63671875 25.48046875 C-115.88811115 24.07899285 -115.88811115 24.07899285 -115 22 C-113.35443434 20.96564444 -111.6829392 19.97236487 -110 19 C-108.948125 18.278125 -107.89625 17.55625 -106.8125 16.8125 C-104 15 -104 15 -102 15 C-102 14.34 -102 13.68 -102 13 C-99.35261084 11.5393715 -98.10551666 11 -95 11 C-95 10.34 -95 9.68 -95 9 C-88.375 6 -88.375 6 -85 6 C-85 5.34 -85 4.68 -85 4 C-84.25234375 3.80664062 -83.5046875 3.61328125 -82.734375 3.4140625 C-81.74953125 3.15367187 -80.7646875 2.89328125 -79.75 2.625 C-78.28820312 2.24214844 -78.28820312 2.24214844 -76.796875 1.8515625 C-74.09049795 1.12517186 -74.09049795 1.12517186 -72.11791992 0 C-52.02522047 -9.48699677 -20.85549716 -4.40187748 0 0 Z " fill="#000000" transform="translate(549,397)"/>
<path d="M0 0 C5.28 0 10.56 0 16 0 C16 0.66 16 1.32 16 2 C17.28583984 2.07347656 17.28583984 2.07347656 18.59765625 2.1484375 C24.66756456 2.54534244 30.24397411 2.99208399 36 5 C36 5.66 36 6.32 36 7 C36.763125 7.144375 37.52625 7.28875 38.3125 7.4375 C41 8 41 8 44 9 C44 9.66 44 10.32 44 11 C44.5775 11.12375 45.155 11.2475 45.75 11.375 C49.82826404 12.50785112 51.60388152 13.40582229 54 17 C55.485 17.495 55.485 17.495 57 18 C58.73948504 19.96836465 60.37262368 21.94436675 62 24 C62.91534387 25.0636398 63.83196213 26.12618454 64.75 27.1875 C67 30 67 30 68 33 C68.99050911 34.00940166 69.99123407 35.00884345 71 36 C73.9416954 40.62715077 75.52999004 45.35851677 76.5078125 50.7265625 C76.94655773 53.08061008 76.94655773 53.08061008 78.03125 55.48828125 C79.50143914 60.81771687 79.38162644 66.05826735 79.375 71.5625 C79.37556396 72.72531494 79.37612793 73.88812988 79.37670898 75.08618164 C79.26981008 83.42254357 78.3660269 90.30815539 75 98 C74.67 98.99 74.34 99.98 74 101 C73.34 101 72.68 101 72 101 C71.80664062 101.71027344 71.61328125 102.42054688 71.4140625 103.15234375 C71.15367187 104.07144531 70.89328125 104.99054688 70.625 105.9375 C70.36976563 106.85402344 70.11453125 107.77054688 69.8515625 108.71484375 C69 111 69 111 67 112 C66.690625 112.61875 66.38125 113.2375 66.0625 113.875 C64.93182999 116.13634002 63.84645439 117.29032001 62 119 C61.2575 119.763125 60.515 120.52625 59.75 121.3125 C50.86046512 130 50.86046512 130 48 130 C48 130.66 48 131.32 48 132 C45.35261084 133.4606285 44.10551666 134 41 134 C41 134.66 41 135.32 41 136 C39.73160474 136.50615298 38.46016898 137.00469099 37.1875 137.5 C36.12595703 137.91765625 36.12595703 137.91765625 35.04296875 138.34375 C33 139 33 139 30 139 C30 139.66 30 140.32 30 141 C15.12596888 144.58256233 -2.12596888 144.58256233 -17 141 C-17 140.34 -17 139.68 -17 139 C-17.62648438 138.86722656 -18.25296875 138.73445312 -18.8984375 138.59765625 C-20.12433594 138.33275391 -20.12433594 138.33275391 -21.375 138.0625 C-22.18710937 137.88847656 -22.99921875 137.71445312 -23.8359375 137.53515625 C-26 137 -26 137 -28 136 C-28 135.34 -28 134.68 -28 134 C-28.721875 133.9175 -29.44375 133.835 -30.1875 133.75 C-33.66257422 132.82331354 -35.30179547 131.37698971 -38 129 C-38.82177734 128.33097656 -38.82177734 128.33097656 -39.66015625 127.6484375 C-43.8715943 124.18672799 -47.84886436 120.4785371 -51 116 C-51 115.34 -51 114.68 -51 114 C-51.66 114 -52.32 114 -53 114 C-56.94874528 108.89953735 -60 103.50991756 -60 97 C-60.66 97 -61.32 97 -62 97 C-65.93596668 79.80357414 -65.93596668 64.19642586 -62 47 C-61.34 47 -60.68 47 -60 47 C-59.89429688 46.30132812 -59.78859375 45.60265625 -59.6796875 44.8828125 C-58.90192327 41.5840194 -57.64898541 38.90022477 -56.125 35.875 C-55.61195313 34.84117187 -55.09890625 33.80734375 -54.5703125 32.7421875 C-53.18434423 30.32191455 -52.02765979 28.84765866 -50 27 C-48.44869392 25.15659049 -46.92292557 23.29458791 -45.40234375 21.42578125 C-44.93957031 20.95527344 -44.47679687 20.48476563 -44 20 C-43.34 20 -42.68 20 -42 20 C-41.67 19.01 -41.34 18.02 -41 17 C-39.68352881 16.30062468 -38.34977849 15.63270867 -37 15 C-36.67 14.34 -36.34 13.68 -36 13 C-34.0556658 11.89467894 -32.06909902 10.86279072 -30.0625 9.875 C-28.98097656 9.33617187 -27.89945313 8.79734375 -26.78515625 8.2421875 C-24 7 -24 7 -22 7 C-22 6.34 -22 5.68 -22 5 C-14.52058632 3.05789567 -7.74152536 1.60636312 0 2 C0 1.34 0 0.68 0 0 Z " fill="#000000" transform="translate(714,451)"/>
<path d="M0 0 C2.14576637 -0.02685938 4.29162645 -0.04633088 6.4375 -0.0625 C7.63246094 -0.07410156 8.82742188 -0.08570313 10.05859375 -0.09765625 C13 0 13 0 14 1 C16.18145521 1.35222954 18.37076054 1.65626938 20.5625 1.9375 C25.84109589 2.65461262 30.8743037 3.56480504 36 5 C36 5.66 36 6.32 36 7 C36.763125 7.144375 37.52625 7.28875 38.3125 7.4375 C41 8 41 8 44 9 C44 9.66 44 10.32 44 11 C45.3303125 11.37125 45.3303125 11.37125 46.6875 11.75 C50.21206681 13.08002521 52.18131179 14.52505426 55 17 C55.88945312 17.68449219 55.88945312 17.68449219 56.796875 18.3828125 C60.91690357 21.63457058 62.5565132 23.82750563 64 29 C64.99 29.33 65.98 29.66 67 30 C67.33 30.99 67.66 31.98 68 33 C68.474375 33.391875 68.94875 33.78375 69.4375 34.1875 C71.9222842 37.06984967 72.21363353 40.31012658 73 44 C73.66 44 74.32 44 75 44 C77.28571429 52.42857143 77.28571429 52.42857143 77 57 C77.66 57 78.32 57 79 57 C80.83391533 68.69121025 80.97830948 80.76712617 77 92 C76.28973516 94.65745348 75.64551425 97.32572669 75 100 C74.34 100 73.68 100 73 100 C72.80664062 100.71027344 72.61328125 101.42054688 72.4140625 102.15234375 C72.15367187 103.07144531 71.89328125 103.99054688 71.625 104.9375 C71.36976563 105.85402344 71.11453125 106.77054688 70.8515625 107.71484375 C70 110 70 110 68 111 C67.690625 111.61875 67.38125 112.2375 67.0625 112.875 C65.94335953 115.11328094 64.77691316 116.26162231 63 118 C61.98963896 119.15770535 60.98977302 120.32464453 60 121.5 C56.87807076 125.20729098 54.34745122 127.82627439 50 130 C49.67 130.66 49.34 131.32 49 132 C42.97386577 135.58336373 37.07403834 138.6784528 30 139 C30 139.66 30 140.32 30 141 C22.46077748 142.8466836 15.30702667 143.3065638 7.5625 143.25 C6.50740234 143.25773438 5.45230469 143.26546875 4.36523438 143.2734375 C-2.62459211 143.25623177 -9.17246567 142.48989068 -16 141 C-16 140.34 -16 139.68 -16 139 C-16.62648438 138.86722656 -17.25296875 138.73445312 -17.8984375 138.59765625 C-19.12433594 138.33275391 -19.12433594 138.33275391 -20.375 138.0625 C-21.18710937 137.88847656 -21.99921875 137.71445312 -22.8359375 137.53515625 C-25 137 -25 137 -27 136 C-27 135.34 -27 134.68 -27 134 C-27.7321875 133.89042969 -28.464375 133.78085937 -29.21875 133.66796875 C-36.44760224 131.93182587 -41.59674021 126.6983362 -46 121 C-47.485 120.01 -47.485 120.01 -49 119 C-49.68268138 117.67479497 -50.3507041 116.34187818 -51 115 C-51.66 114.67 -52.32 114.34 -53 114 C-53.309375 113.05125 -53.61875 112.1025 -53.9375 111.125 C-54.7200781 108.0682022 -54.7200781 108.0682022 -56.4375 106.5625 C-62.56441041 100.43558959 -64.10170426 89.70748671 -64.125 81.4375 C-64.09347512 79.95808244 -64.05556738 78.47870971 -64 77 C-64.66 77 -65.32 77 -66 77 C-66 74.03 -66 71.06 -66 68 C-65.34 68 -64.68 68 -64 68 C-64.061875 66.783125 -64.12375 65.56625 -64.1875 64.3125 C-64.17191929 54.40316559 -60.9884921 44.96904569 -57 36 C-56.34 36 -55.68 36 -55 36 C-54.773125 35.113125 -54.54625 34.22625 -54.3125 33.3125 C-52.81610154 29.5358753 -51.07508263 27.61382024 -48 25 C-47.34 25 -46.68 25 -46 25 C-45.67 23.68 -45.34 22.36 -45 21 C-44.071875 20.87625 -44.071875 20.87625 -43.125 20.75 C-40.84645565 20.20721701 -40.84645565 20.20721701 -39.9375 18.125 C-39.628125 17.42375 -39.31875 16.7225 -39 16 C-36.56944791 12.84028228 -33.75984937 12.08617871 -30 11 C-30 10.34 -30 9.68 -30 9 C-27.36 8.34 -24.72 7.68 -22 7 C-22 6.34 -22 5.68 -22 5 C-14.52058632 3.05789567 -7.74152536 1.60636312 0 2 C0 1.34 0 0.68 0 0 Z " fill="#000000" transform="translate(296,451)"/>
<path d="M0 0 C0.84240234 -0.00773437 1.68480469 -0.01546875 2.55273438 -0.0234375 C10.22733147 0.00019482 17.44713419 0.84708094 24.125 4.875 C25.25615234 5.54402344 25.25615234 5.54402344 26.41015625 6.2265625 C26.95542969 6.56429688 27.50070312 6.90203125 28.0625 7.25 C28.0625 7.91 28.0625 8.57 28.0625 9.25 C28.59875 9.311875 29.135 9.37375 29.6875 9.4375 C34.19267291 10.97874336 37.23430673 14.09052942 39.9375 17.875 C41.0625 20.25 41.0625 20.25 41.0625 23.25 C41.7225 23.25 42.3825 23.25 43.0625 23.25 C44.31914978 26.15600261 45.0625 28.04604584 45.0625 31.25 C45.7225 31.25 46.3825 31.25 47.0625 31.25 C47.041875 32.054375 47.02125 32.85875 47 33.6875 C46.76616379 36.18354885 46.76616379 36.18354885 48.0625 37.25 C48.16160095 38.75259477 48.19329701 40.25976711 48.1953125 41.765625 C48.19660156 42.68730469 48.19789063 43.60898437 48.19921875 44.55859375 C48.19535156 45.52925781 48.19148437 46.49992188 48.1875 47.5 C48.19136719 48.45519531 48.19523438 49.41039062 48.19921875 50.39453125 C48.19792969 51.32136719 48.19664062 52.24820313 48.1953125 53.203125 C48.19418457 54.05036133 48.19305664 54.89759766 48.19189453 55.77050781 C48.05743065 58.34714024 47.62840028 60.73576182 47.0625 63.25 C46.4025 63.25 45.7425 63.25 45.0625 63.25 C44.918125 64.19875 44.77375 65.1475 44.625 66.125 C44.0625 69.25 44.0625 69.25 43.0625 71.25 C42.4025 71.25 41.7425 71.25 41.0625 71.25 C40.876875 72.11625 40.69125 72.9825 40.5 73.875 C38.84092886 77.7702105 37.00559087 79.32766528 33.71875 81.85546875 C31.8029858 83.33679152 31.8029858 83.33679152 30.0625 86.25 C28.5775 86.745 28.5775 86.745 27.0625 87.25 C26.7325 87.91 26.4025 88.57 26.0625 89.25 C23.15990189 90.6249149 21.30111295 91.25 18.0625 91.25 C18.0625 91.91 18.0625 92.57 18.0625 93.25 C5.75529411 96.0123388 -5.6020026 95.7393256 -17.9375 93.25 C-17.9375 92.59 -17.9375 91.93 -17.9375 91.25 C-19.0821875 91.0334375 -19.0821875 91.0334375 -20.25 90.8125 C-22.9375 90.25 -22.9375 90.25 -25.9375 89.25 C-26.4325 88.26 -26.4325 88.26 -26.9375 87.25 C-27.55367187 86.95222656 -28.16984375 86.65445313 -28.8046875 86.34765625 C-31.21964849 85.10479171 -32.37874925 83.79880002 -34.0625 81.6875 C-36.14653634 79.03974334 -36.14653634 79.03974334 -38.9375 77.25 C-42.95797943 71.12907778 -46.37758928 64.73151772 -45.9375 57.25 C-46.5975 57.25 -47.2575 57.25 -47.9375 57.25 C-47.9375 50.65 -47.9375 44.05 -47.9375 37.25 C-47.2775 37.25 -46.6175 37.25 -45.9375 37.25 C-45.7209375 35.39375 -45.7209375 35.39375 -45.5 33.5 C-44.4907631 25.66113258 -44.4907631 25.66113258 -40.9375 22.25 C-39.76175289 20.15010348 -39.76175289 20.15010348 -38.9375 18.25 C-38.2775 18.25 -37.6175 18.25 -36.9375 18.25 C-36.710625 17.5075 -36.48375 16.765 -36.25 16 C-34.6785439 12.7074253 -32.93754284 11.27502891 -29.9375 9.25 C-29.2775 9.25 -28.6175 9.25 -27.9375 9.25 C-27.9375 8.59 -27.9375 7.93 -27.9375 7.25 C-26.44315577 6.44770863 -24.94163528 5.65878133 -23.4375 4.875 C-22.6021875 4.43414062 -21.766875 3.99328125 -20.90625 3.5390625 C-13.91028164 0.5013394 -7.52367062 -0.06876165 0 0 Z " fill="#000000" transform="translate(862.9375,484.75)"/>
<path d="M0 0 C0.88558594 -0.01611328 1.77117187 -0.03222656 2.68359375 -0.04882812 C11.79318509 -0.05551652 18.81822699 2.57268261 26.5 7.3125 C26.5 7.9725 26.5 8.6325 26.5 9.3125 C27.08523437 9.42207031 27.67046875 9.53164063 28.2734375 9.64453125 C32.11728385 10.79768515 34.82738913 13.38407248 37.5 16.3125 C38.9375 19.6875 38.9375 19.6875 39.5 22.3125 C40.16 22.3125 40.82 22.3125 41.5 22.3125 C48.77191636 35.40194944 49.21708931 49.90877892 45.5 64.3125 C44.84 64.3125 44.18 64.3125 43.5 64.3125 C43.17 66.6225 42.84 68.9325 42.5 71.3125 C41.015 71.8075 41.015 71.8075 39.5 72.3125 C39.273125 73.158125 39.04625 74.00375 38.8125 74.875 C36.93331762 79.79666814 33.52139377 82.97593764 29.5 86.3125 C28.015 86.8075 28.015 86.8075 26.5 87.3125 C25.8503125 88.055 25.8503125 88.055 25.1875 88.8125 C22.81932032 90.91754861 20.58518447 90.96970173 17.5 91.3125 C17.5 91.9725 17.5 92.6325 17.5 93.3125 C5.19279411 96.0748388 -6.1645026 95.8018256 -18.5 93.3125 C-18.5 92.6525 -18.5 91.9925 -18.5 91.3125 C-20.046875 90.94125 -20.046875 90.94125 -21.625 90.5625 C-28.47183616 88.55519462 -32.55549535 84.39603154 -36.984375 79.01953125 C-38.40713898 77.20396452 -38.40713898 77.20396452 -40.5 76.3125 C-42.07548683 73.68668862 -42.5 72.44150213 -42.5 69.3125 C-43.16 69.3125 -43.82 69.3125 -44.5 69.3125 C-47.29343057 61.71912001 -47.9628613 54.86645234 -47.875 46.8125 C-47.88660156 45.74902344 -47.89820312 44.68554688 -47.91015625 43.58984375 C-47.88541607 36.86876056 -47.31300247 30.50536507 -44.5 24.3125 C-43.84 23.9825 -43.18 23.6525 -42.5 23.3125 C-41.36649466 21.29580173 -41.36649466 21.29580173 -40.5 19.3125 C-39.84 19.3125 -39.18 19.3125 -38.5 19.3125 C-38.40589844 18.71953125 -38.31179687 18.1265625 -38.21484375 17.515625 C-37.34054781 14.82107359 -36.23279682 13.84927244 -34.0625 12.0625 C-33.44503906 11.54171875 -32.82757813 11.0209375 -32.19140625 10.484375 C-30.5 9.3125 -30.5 9.3125 -28.5 9.3125 C-28.17 8.3225 -27.84 7.3325 -27.5 6.3125 C-25.96875 5.21484375 -25.96875 5.21484375 -24 4.25 C-23.05640625 3.76853516 -23.05640625 3.76853516 -22.09375 3.27734375 C-14.82034467 0.5717246 -7.71050915 -0.02805862 0 0 Z " fill="#000000" transform="translate(161.5,484.6875)"/>
<path d="M0 0 C5.94 0 11.88 0 18 0 C18 0.66 18 1.32 18 2 C19.134375 2.12375 20.26875 2.2475 21.4375 2.375 C22.613125 2.58125 23.78875 2.7875 25 3 C25.495 3.99 25.495 3.99 26 5 C27.2684375 5.7425 27.2684375 5.7425 28.5625 6.5 C29.366875 6.995 30.17125 7.49 31 8 C31 8.66 31 9.32 31 10 C31.66 10 32.32 10 33 10 C33.82113177 11.39077301 34.63152495 12.78788893 35.4375 14.1875 C35.88996094 14.96480469 36.34242188 15.74210938 36.80859375 16.54296875 C38.95639071 20.97235986 39.13742451 25.12959032 39.125 30 C39.12886719 31.5159375 39.12886719 31.5159375 39.1328125 33.0625 C39.00826727 35.81714744 38.62110865 38.31838803 38 41 C37.34 41 36.68 41 36 41 C35.85304688 41.59167969 35.70609375 42.18335938 35.5546875 42.79296875 C33.86220984 48.7555481 32.2714576 51.65465191 27 55 C24.6592363 55.89306246 22.45919988 56.45897603 20 57 C20 57.66 20 58.32 20 59 C16.85449187 59.11792821 13.70956459 59.18781383 10.5625 59.25 C9.24475586 59.30027344 9.24475586 59.30027344 7.90039062 59.3515625 C1.54563058 59.4453597 -3.56616476 58.42359846 -9 55 C-10.737726 53.30681937 -12.24216787 51.61189072 -13.7109375 49.68359375 C-14.95742642 47.94779574 -14.95742642 47.94779574 -16.62109375 46.546875 C-19.06914664 43.80061737 -18.70761207 40.5671328 -19 37 C-19.66 37 -20.32 37 -21 37 C-21 31.72 -21 26.44 -21 21 C-20.34 21 -19.68 21 -19 21 C-18.7834375 19.8553125 -18.7834375 19.8553125 -18.5625 18.6875 C-18 16 -18 16 -17 13 C-16.34 13 -15.68 13 -15 13 C-14.814375 12.278125 -14.62875 11.55625 -14.4375 10.8125 C-12.46019952 6.94386862 -9.80104132 5.02250025 -6 3 C-2.5625 2.1875 -2.5625 2.1875 0 2 C0 1.34 0 0.68 0 0 Z " fill="#000000" transform="translate(959,506)"/>
<path d="M0 0 C5.61 0 11.22 0 17 0 C17 0.66 17 1.32 17 2 C17.928125 2.144375 18.85625 2.28875 19.8125 2.4375 C23 3 23 3 26 4 C26.495 4.99 26.495 4.99 27 6 C27.66 6.28875 28.32 6.5775 29 6.875 C31 8 31 8 31.75 10.125 C31.8325 10.74375 31.915 11.3625 32 12 C32.66 12 33.32 12 34 12 C35.76462683 15.08809695 36 16.23312136 36 20 C36.66 20 37.32 20 38 20 C39.59456558 26.17894161 39.59456558 32.82105839 38 39 C37.34 39 36.68 39 36 39 C35.979375 39.99 35.95875 40.98 35.9375 42 C35.19371707 47.22773147 31.79520782 50.561077 28 54 C23.03125 57 23.03125 57 20 57 C20 57.66 20 58.32 20 59 C9.75901459 60.7068309 0.04502522 60.70229851 -9 55 C-10.67374432 53.24216805 -12.20482002 51.43256804 -13.703125 49.5234375 C-14.94333073 47.86534396 -14.94333073 47.86534396 -17 47 C-21.38866417 37.54749255 -21.90898409 25.11262505 -18.375 15.25 C-16.34940924 10.98101303 -13.81651291 8.71396474 -10 6 C-9.67 5.34 -9.34 4.68 -9 4 C-5.65489648 2.37265234 -3.81164166 2 0 2 C0 1.34 0 0.68 0 0 Z " fill="#000000" transform="translate(47,506)"/>
</svg>
